<svg id="Capa_1" enable-background="new 0 0 32 32" height="512" viewBox="0 0 32 32" width="512" xmlns="http://www.w3.org/2000/svg"><path d="m29 6h-26c-2.201 0-3 1.794-3 3v16c0 2.201 1.794 3 3 3h26c2.201 0 3-1.794 3-3v-16c0-2.201-1.794-3-3-3zm-13 12.001c-2.454 0-8.788-5.873-12.639-10.001h25.277c-3.849 4.128-10.182 10.001-12.638 10.001zm-8.883-3.472-5.117 9.383v-14.439c1.109 1.187 2.997 3.139 5.117 5.056zm1.542 1.351c2.667 2.245 5.457 4.121 7.341 4.121 1.885 0 4.674-1.876 7.342-4.122l5.52 10.121h-25.723zm16.225-1.351c2.12-1.917 4.008-3.868 5.116-5.055v14.436z"/></svg>